<mxfile host="Electron" modified="2024-08-22T03:45:14.471Z" agent="Mozilla/5.0 (X11; Linux x86_64) AppleWebKit/537.36 (KHTML, like Gecko) draw.io/24.2.5 Chrome/120.0.6099.109 Electron/28.1.0 Safari/537.36" etag="0OYIiolh3xvieUY4RlW6" version="24.2.5" type="device">
  <diagram name="Page-1" id="G8ZvJWXJsHYqm7BaVf0D">
    <mxGraphModel dx="1420" dy="821" grid="1" gridSize="10" guides="1" tooltips="1" connect="1" arrows="1" fold="1" page="1" pageScale="1" pageWidth="850" pageHeight="1100" math="0" shadow="0">
      <root>
        <mxCell id="0" />
        <mxCell id="1" parent="0" />
        <mxCell id="Y1ht0l0qpF1LJEd9NI-s-15" value="NULL" style="text;html=1;align=center;verticalAlign=middle;whiteSpace=wrap;rounded=0;fontFamily=Ubuntu;fontSize=16;fontStyle=0;" parent="1" vertex="1">
          <mxGeometry x="1080" y="200" width="80" height="40" as="geometry" />
        </mxCell>
        <mxCell id="6nbiD8FfBm9z2fzWC2GB-25" style="edgeStyle=orthogonalEdgeStyle;rounded=1;orthogonalLoop=1;jettySize=auto;html=1;entryX=0;entryY=0;entryDx=0;entryDy=0;shadow=0;strokeColor=#6c8ebf;strokeWidth=1;fontFamily=Ubuntu;fontSize=14;fontStyle=0;endArrow=block;endFill=1;fillColor=#dae8fc;" parent="1" source="Y1ht0l0qpF1LJEd9NI-s-20" target="6nbiD8FfBm9z2fzWC2GB-11" edge="1">
          <mxGeometry relative="1" as="geometry" />
        </mxCell>
        <mxCell id="Y1ht0l0qpF1LJEd9NI-s-20" value="Head" style="text;html=1;align=center;verticalAlign=middle;whiteSpace=wrap;rounded=0;fontFamily=Ubuntu;fontSize=16;fontStyle=0;" parent="1" vertex="1">
          <mxGeometry x="120" y="120" width="80" height="40" as="geometry" />
        </mxCell>
        <mxCell id="Y1ht0l0qpF1LJEd9NI-s-22" value="Data" style="text;html=1;align=center;verticalAlign=middle;whiteSpace=wrap;rounded=0;fontFamily=Ubuntu;fontSize=16;fontStyle=0;" parent="1" vertex="1">
          <mxGeometry x="215" y="240" width="50" height="40" as="geometry" />
        </mxCell>
        <mxCell id="Y1ht0l0qpF1LJEd9NI-s-1" value="A" style="rounded=0;whiteSpace=wrap;html=1;shadow=0;strokeColor=#6c8ebf;strokeWidth=1;fontFamily=Ubuntu;fontSize=16;fontStyle=0;fillColor=#dae8fc;" parent="1" vertex="1">
          <mxGeometry x="200" y="200" width="80" height="40" as="geometry" />
        </mxCell>
        <mxCell id="6nbiD8FfBm9z2fzWC2GB-16" value="" style="edgeStyle=orthogonalEdgeStyle;rounded=1;orthogonalLoop=1;jettySize=auto;html=1;entryX=0;entryY=0.25;entryDx=0;entryDy=0;shadow=0;strokeColor=#6c8ebf;strokeWidth=1;fontFamily=Ubuntu;fontSize=14;fontStyle=0;endArrow=block;endFill=1;fillColor=#dae8fc;exitX=1;exitY=0.25;exitDx=0;exitDy=0;entryPerimeter=0;" parent="1" source="Y1ht0l0qpF1LJEd9NI-s-2" target="6nbiD8FfBm9z2fzWC2GB-14" edge="1">
          <mxGeometry relative="1" as="geometry" />
        </mxCell>
        <mxCell id="Y1ht0l0qpF1LJEd9NI-s-2" value="" style="rounded=0;whiteSpace=wrap;html=1;shadow=0;strokeColor=#b85450;strokeWidth=1;fontFamily=Ubuntu;fontSize=16;fontStyle=0;fillColor=#f8cecc;" parent="1" vertex="1">
          <mxGeometry x="280" y="200" width="40" height="40" as="geometry" />
        </mxCell>
        <mxCell id="6nbiD8FfBm9z2fzWC2GB-1" value="B" style="rounded=0;whiteSpace=wrap;html=1;shadow=0;strokeColor=#6c8ebf;strokeWidth=1;fontFamily=Ubuntu;fontSize=16;fontStyle=0;fillColor=#dae8fc;" parent="1" vertex="1">
          <mxGeometry x="440" y="200" width="80" height="40" as="geometry" />
        </mxCell>
        <mxCell id="6nbiD8FfBm9z2fzWC2GB-19" style="edgeStyle=orthogonalEdgeStyle;rounded=1;orthogonalLoop=1;jettySize=auto;html=1;entryX=0;entryY=0.25;entryDx=0;entryDy=0;shadow=0;strokeColor=#6c8ebf;strokeWidth=1;fontFamily=Ubuntu;fontSize=14;fontStyle=0;endArrow=block;endFill=1;fillColor=#dae8fc;" parent="1" target="6nbiD8FfBm9z2fzWC2GB-15" edge="1">
          <mxGeometry relative="1" as="geometry">
            <mxPoint x="560" y="210" as="sourcePoint" />
          </mxGeometry>
        </mxCell>
        <mxCell id="6nbiD8FfBm9z2fzWC2GB-2" value="" style="rounded=0;whiteSpace=wrap;html=1;shadow=0;strokeColor=#b85450;strokeWidth=1;fontFamily=Ubuntu;fontSize=16;fontStyle=0;fillColor=#f8cecc;" parent="1" vertex="1">
          <mxGeometry x="520" y="200" width="40" height="40" as="geometry" />
        </mxCell>
        <mxCell id="6nbiD8FfBm9z2fzWC2GB-4" value="C" style="rounded=0;whiteSpace=wrap;html=1;shadow=0;strokeColor=#6c8ebf;strokeWidth=1;fontFamily=Ubuntu;fontSize=16;fontStyle=0;fillColor=#dae8fc;" parent="1" vertex="1">
          <mxGeometry x="680" y="200" width="80" height="40" as="geometry" />
        </mxCell>
        <mxCell id="6nbiD8FfBm9z2fzWC2GB-22" style="edgeStyle=orthogonalEdgeStyle;rounded=1;orthogonalLoop=1;jettySize=auto;html=1;entryX=0;entryY=0.25;entryDx=0;entryDy=0;shadow=0;strokeColor=#6c8ebf;strokeWidth=1;fontFamily=Ubuntu;fontSize=14;fontStyle=0;endArrow=block;endFill=1;fillColor=#dae8fc;exitX=1;exitY=0.25;exitDx=0;exitDy=0;" parent="1" source="6nbiD8FfBm9z2fzWC2GB-5" target="6nbiD8FfBm9z2fzWC2GB-21" edge="1">
          <mxGeometry relative="1" as="geometry" />
        </mxCell>
        <mxCell id="6nbiD8FfBm9z2fzWC2GB-5" value="" style="rounded=0;whiteSpace=wrap;html=1;shadow=0;strokeColor=#b85450;strokeWidth=1;fontFamily=Ubuntu;fontSize=16;fontStyle=0;fillColor=#f8cecc;" parent="1" vertex="1">
          <mxGeometry x="760" y="200" width="40" height="40" as="geometry" />
        </mxCell>
        <mxCell id="6nbiD8FfBm9z2fzWC2GB-7" value="D" style="rounded=0;whiteSpace=wrap;html=1;shadow=0;strokeColor=#6c8ebf;strokeWidth=1;fontFamily=Ubuntu;fontSize=16;fontStyle=0;fillColor=#dae8fc;" parent="1" vertex="1">
          <mxGeometry x="920" y="200" width="80" height="40" as="geometry" />
        </mxCell>
        <mxCell id="6nbiD8FfBm9z2fzWC2GB-31" style="edgeStyle=orthogonalEdgeStyle;rounded=1;orthogonalLoop=1;jettySize=auto;html=1;shadow=0;strokeColor=#6c8ebf;strokeWidth=1;fontFamily=Ubuntu;fontSize=14;fontStyle=0;endArrow=block;endFill=1;fillColor=#dae8fc;" parent="1" source="6nbiD8FfBm9z2fzWC2GB-8" target="Y1ht0l0qpF1LJEd9NI-s-15" edge="1">
          <mxGeometry relative="1" as="geometry" />
        </mxCell>
        <mxCell id="6nbiD8FfBm9z2fzWC2GB-8" value="" style="rounded=0;whiteSpace=wrap;html=1;shadow=0;strokeColor=#b85450;strokeWidth=1;fontFamily=Ubuntu;fontSize=16;fontStyle=0;fillColor=#f8cecc;" parent="1" vertex="1">
          <mxGeometry x="1000" y="200" width="40" height="40" as="geometry" />
        </mxCell>
        <mxCell id="6nbiD8FfBm9z2fzWC2GB-10" value="Doubly Linked List" style="text;html=1;align=center;verticalAlign=middle;whiteSpace=wrap;rounded=0;fontFamily=Ubuntu;fontSize=20;fontStyle=0;" parent="1" vertex="1">
          <mxGeometry x="480" y="280" width="200" height="40" as="geometry" />
        </mxCell>
        <mxCell id="6nbiD8FfBm9z2fzWC2GB-28" value="" style="edgeStyle=orthogonalEdgeStyle;rounded=1;orthogonalLoop=1;jettySize=auto;html=1;entryX=1;entryY=0.5;entryDx=0;entryDy=0;shadow=0;strokeColor=#6c8ebf;strokeWidth=1;fontFamily=Ubuntu;fontSize=14;fontStyle=0;endArrow=block;endFill=1;fillColor=#dae8fc;exitX=0;exitY=0.5;exitDx=0;exitDy=0;" parent="1" source="6nbiD8FfBm9z2fzWC2GB-11" target="6nbiD8FfBm9z2fzWC2GB-12" edge="1">
          <mxGeometry relative="1" as="geometry" />
        </mxCell>
        <mxCell id="6nbiD8FfBm9z2fzWC2GB-11" value="" style="rounded=0;whiteSpace=wrap;html=1;shadow=0;strokeColor=#b85450;strokeWidth=1;fontFamily=Ubuntu;fontSize=16;fontStyle=0;fillColor=#f8cecc;" parent="1" vertex="1">
          <mxGeometry x="160" y="200" width="40" height="40" as="geometry" />
        </mxCell>
        <mxCell id="6nbiD8FfBm9z2fzWC2GB-12" value="NULL" style="text;html=1;align=center;verticalAlign=middle;whiteSpace=wrap;rounded=0;fontFamily=Ubuntu;fontSize=16;fontStyle=0;" parent="1" vertex="1">
          <mxGeometry x="40" y="200" width="80" height="40" as="geometry" />
        </mxCell>
        <mxCell id="6nbiD8FfBm9z2fzWC2GB-17" value="" style="edgeStyle=orthogonalEdgeStyle;rounded=1;orthogonalLoop=1;jettySize=auto;html=1;entryX=1;entryY=0.75;entryDx=0;entryDy=0;shadow=0;strokeColor=#6c8ebf;strokeWidth=1;fontFamily=Ubuntu;fontSize=14;fontStyle=0;endArrow=block;endFill=1;fillColor=#dae8fc;exitX=0;exitY=0.75;exitDx=0;exitDy=0;" parent="1" source="6nbiD8FfBm9z2fzWC2GB-14" target="Y1ht0l0qpF1LJEd9NI-s-2" edge="1">
          <mxGeometry relative="1" as="geometry" />
        </mxCell>
        <mxCell id="6nbiD8FfBm9z2fzWC2GB-14" value="" style="rounded=0;whiteSpace=wrap;html=1;shadow=0;strokeColor=#b85450;strokeWidth=1;fontFamily=Ubuntu;fontSize=16;fontStyle=0;fillColor=#f8cecc;" parent="1" vertex="1">
          <mxGeometry x="400" y="200" width="40" height="40" as="geometry" />
        </mxCell>
        <mxCell id="6nbiD8FfBm9z2fzWC2GB-20" style="edgeStyle=orthogonalEdgeStyle;rounded=1;orthogonalLoop=1;jettySize=auto;html=1;entryX=1;entryY=0.75;entryDx=0;entryDy=0;shadow=0;strokeColor=#6c8ebf;strokeWidth=1;fontFamily=Ubuntu;fontSize=14;fontStyle=0;endArrow=block;endFill=1;fillColor=#dae8fc;exitX=0;exitY=0.75;exitDx=0;exitDy=0;" parent="1" source="6nbiD8FfBm9z2fzWC2GB-15" target="6nbiD8FfBm9z2fzWC2GB-2" edge="1">
          <mxGeometry relative="1" as="geometry" />
        </mxCell>
        <mxCell id="6nbiD8FfBm9z2fzWC2GB-15" value="" style="rounded=0;whiteSpace=wrap;html=1;shadow=0;strokeColor=#b85450;strokeWidth=1;fontFamily=Ubuntu;fontSize=16;fontStyle=0;fillColor=#f8cecc;" parent="1" vertex="1">
          <mxGeometry x="640" y="200" width="40" height="40" as="geometry" />
        </mxCell>
        <mxCell id="6nbiD8FfBm9z2fzWC2GB-23" style="edgeStyle=orthogonalEdgeStyle;rounded=1;orthogonalLoop=1;jettySize=auto;html=1;entryX=1;entryY=0.75;entryDx=0;entryDy=0;shadow=0;strokeColor=#6c8ebf;strokeWidth=1;fontFamily=Ubuntu;fontSize=14;fontStyle=0;endArrow=block;endFill=1;fillColor=#dae8fc;" parent="1" target="6nbiD8FfBm9z2fzWC2GB-5" edge="1">
          <mxGeometry relative="1" as="geometry">
            <mxPoint x="880" y="230" as="sourcePoint" />
          </mxGeometry>
        </mxCell>
        <mxCell id="6nbiD8FfBm9z2fzWC2GB-21" value="" style="rounded=0;whiteSpace=wrap;html=1;shadow=0;strokeColor=#b85450;strokeWidth=1;fontFamily=Ubuntu;fontSize=16;fontStyle=0;fillColor=#f8cecc;" parent="1" vertex="1">
          <mxGeometry x="880" y="200" width="40" height="40" as="geometry" />
        </mxCell>
        <mxCell id="6nbiD8FfBm9z2fzWC2GB-29" value="Previous" style="text;html=1;align=center;verticalAlign=middle;whiteSpace=wrap;rounded=0;fontFamily=Ubuntu;fontSize=16;fontStyle=0;" parent="1" vertex="1">
          <mxGeometry x="130" y="240" width="75" height="40" as="geometry" />
        </mxCell>
        <mxCell id="6nbiD8FfBm9z2fzWC2GB-30" value="Next" style="text;html=1;align=center;verticalAlign=middle;whiteSpace=wrap;rounded=0;fontFamily=Ubuntu;fontSize=16;fontStyle=0;" parent="1" vertex="1">
          <mxGeometry x="280" y="240" width="50" height="40" as="geometry" />
        </mxCell>
        <mxCell id="2pEiV_K3PHCzk1eTiIXj-2" style="edgeStyle=orthogonalEdgeStyle;rounded=1;orthogonalLoop=1;jettySize=auto;html=1;entryX=0;entryY=0;entryDx=0;entryDy=0;shadow=0;strokeColor=#6c8ebf;strokeWidth=1;fontFamily=Ubuntu;fontSize=14;fontStyle=0;endArrow=block;endFill=1;fillColor=#dae8fc;" edge="1" parent="1" source="2pEiV_K3PHCzk1eTiIXj-1" target="6nbiD8FfBm9z2fzWC2GB-21">
          <mxGeometry relative="1" as="geometry" />
        </mxCell>
        <mxCell id="2pEiV_K3PHCzk1eTiIXj-1" value="Tail" style="text;html=1;align=center;verticalAlign=middle;whiteSpace=wrap;rounded=0;fontFamily=Ubuntu;fontSize=16;fontStyle=0;" vertex="1" parent="1">
          <mxGeometry x="840" y="120" width="80" height="40" as="geometry" />
        </mxCell>
      </root>
    </mxGraphModel>
  </diagram>
</mxfile>
